<svg width="60" height="16" viewBox="0 0 60 16" fill="none" xmlns="http://www.w3.org/2000/svg">
<path d="M2.792 15.072C2.104 15.072 1.56 14.872 1.16 14.472C0.76 14.072 0.56 13.528 0.56 12.84V0.431999C0.736 0.399999 1.016 0.359999 1.4 0.311999C1.784 0.247999 2.152 0.215999 2.504 0.215999C2.872 0.215999 3.192 0.247999 3.464 0.311999C3.752 0.359999 3.992 0.455999 4.184 0.599999C4.376 0.743999 4.52 0.943999 4.616 1.2C4.712 1.456 4.76 1.792 4.76 2.208V11.688H10.256C10.368 11.864 10.472 12.104 10.568 12.408C10.664 12.696 10.712 13 10.712 13.32C10.712 13.96 10.576 14.416 10.304 14.688C10.032 14.944 9.672 15.072 9.224 15.072H2.792ZM11.4181 7.704C11.4181 6.456 11.6101 5.352 11.9941 4.392C12.3941 3.432 12.9301 2.632 13.6021 1.992C14.2901 1.336 15.0901 0.84 16.0021 0.503999C16.9301 0.168 17.9301 0 19.0021 0C20.0741 0 21.0661 0.168 21.9781 0.503999C22.9061 0.84 23.7141 1.336 24.4021 1.992C25.0901 2.632 25.6261 3.432 26.0101 4.392C26.4101 5.352 26.6101 6.456 26.6101 7.704C26.6101 8.952 26.4181 10.064 26.0341 11.04C25.6501 12 25.1141 12.808 24.4261 13.464C23.7541 14.104 22.9541 14.592 22.0261 14.928C21.0981 15.264 20.0901 15.432 19.0021 15.432C17.9141 15.432 16.9061 15.264 15.9781 14.928C15.0501 14.576 14.2501 14.072 13.5781 13.416C12.9061 12.76 12.3781 11.952 11.9941 10.992C11.6101 10.032 11.4181 8.936 11.4181 7.704ZM15.7381 7.704C15.7381 9.16 16.0341 10.248 16.6261 10.968C17.2181 11.688 18.0101 12.048 19.0021 12.048C20.0101 12.048 20.8101 11.688 21.4021 10.968C21.9941 10.248 22.2901 9.16 22.2901 7.704C22.2901 6.264 21.9941 5.184 21.4021 4.464C20.8261 3.744 20.0341 3.384 19.0261 3.384C18.0341 3.384 17.2341 3.744 16.6261 4.464C16.0341 5.168 15.7381 6.248 15.7381 7.704ZM42.1891 12.624C42.1891 13.12 42.1011 13.488 41.9251 13.728C41.7491 13.968 41.4691 14.2 41.0851 14.424C40.8611 14.552 40.5811 14.68 40.2451 14.808C39.9091 14.92 39.5411 15.016 39.1411 15.096C38.7411 15.192 38.3171 15.264 37.8691 15.312C37.4371 15.36 37.0051 15.384 36.5731 15.384C35.4211 15.384 34.3411 15.232 33.3331 14.928C32.3251 14.608 31.4451 14.136 30.6931 13.512C29.9571 12.872 29.3731 12.08 28.9411 11.136C28.5091 10.192 28.2931 9.096 28.2931 7.848C28.2931 6.536 28.5251 5.392 28.9891 4.416C29.4691 3.44 30.0931 2.632 30.8611 1.992C31.6451 1.336 32.5331 0.848 33.5251 0.527999C34.5331 0.207999 35.5651 0.0479994 36.6211 0.0479994C38.1411 0.0479994 39.3411 0.296 40.2211 0.792C41.1171 1.272 41.5651 1.904 41.5651 2.688C41.5651 3.104 41.4611 3.464 41.2531 3.768C41.0451 4.072 40.8051 4.312 40.5331 4.488C40.1331 4.248 39.6291 4.016 39.0211 3.792C38.4291 3.552 37.7571 3.432 37.0051 3.432C35.6611 3.432 34.5891 3.816 33.7891 4.584C33.0051 5.352 32.6131 6.416 32.6131 7.776C32.6131 8.512 32.7171 9.152 32.9251 9.696C33.1491 10.224 33.4451 10.664 33.8131 11.016C34.1811 11.352 34.6051 11.608 35.0851 11.784C35.5651 11.944 36.0771 12.024 36.6211 12.024C36.9731 12.024 37.2851 11.992 37.5571 11.928C37.8291 11.864 38.0371 11.792 38.1811 11.712V9.456H35.6131C35.5171 9.28 35.4211 9.048 35.3251 8.76C35.2451 8.472 35.2051 8.168 35.2051 7.848C35.2051 7.272 35.3331 6.856 35.5891 6.6C35.8611 6.344 36.2051 6.216 36.6211 6.216H40.6771C41.1571 6.216 41.5251 6.352 41.7811 6.624C42.0531 6.88 42.1891 7.248 42.1891 7.728V12.624ZM44.2306 7.704C44.2306 6.456 44.4226 5.352 44.8066 4.392C45.2066 3.432 45.7426 2.632 46.4146 1.992C47.1026 1.336 47.9026 0.84 48.8146 0.503999C49.7426 0.168 50.7426 0 51.8146 0C52.8866 0 53.8786 0.168 54.7906 0.503999C55.7186 0.84 56.5266 1.336 57.2146 1.992C57.9026 2.632 58.4386 3.432 58.8226 4.392C59.2226 5.352 59.4226 6.456 59.4226 7.704C59.4226 8.952 59.2306 10.064 58.8466 11.04C58.4626 12 57.9266 12.808 57.2386 13.464C56.5666 14.104 55.7666 14.592 54.8386 14.928C53.9106 15.264 52.9026 15.432 51.8146 15.432C50.7266 15.432 49.7186 15.264 48.7906 14.928C47.8626 14.576 47.0626 14.072 46.3906 13.416C45.7186 12.76 45.1906 11.952 44.8066 10.992C44.4226 10.032 44.2306 8.936 44.2306 7.704ZM48.5506 7.704C48.5506 9.16 48.8466 10.248 49.4386 10.968C50.0306 11.688 50.8226 12.048 51.8146 12.048C52.8226 12.048 53.6226 11.688 54.2146 10.968C54.8066 10.248 55.1026 9.16 55.1026 7.704C55.1026 6.264 54.8066 5.184 54.2146 4.464C53.6386 3.744 52.8466 3.384 51.8386 3.384C50.8466 3.384 50.0466 3.744 49.4386 4.464C48.8466 5.168 48.5506 6.248 48.5506 7.704Z" fill="white"/>
</svg>
